<mxfile host="app.diagrams.net" modified="2023-10-18T03:41:24.211Z" agent="Mozilla/5.0 (Windows NT 10.0; Win64; x64) AppleWebKit/537.36 (KHTML, like Gecko) Chrome/118.0.0.0 Safari/537.36" etag="v0XoVaFBtV79ziQKt6zW" version="22.0.4" type="device">
  <diagram name="Halaman-1" id="mj-QTtvLq6fx-pV_2mvY">
    <mxGraphModel dx="1434" dy="721" grid="1" gridSize="10" guides="1" tooltips="1" connect="1" arrows="1" fold="1" page="1" pageScale="1" pageWidth="827" pageHeight="1169" math="0" shadow="0">
      <root>
        <mxCell id="0" />
        <mxCell id="1" parent="0" />
        <mxCell id="dUOWOXTwYiUu_js7CAqy-15" value="" style="edgeStyle=orthogonalEdgeStyle;rounded=0;orthogonalLoop=1;jettySize=auto;html=1;endArrow=none;endFill=0;" edge="1" parent="1" source="dUOWOXTwYiUu_js7CAqy-1" target="dUOWOXTwYiUu_js7CAqy-13">
          <mxGeometry relative="1" as="geometry" />
        </mxCell>
        <mxCell id="dUOWOXTwYiUu_js7CAqy-22" style="rounded=0;orthogonalLoop=1;jettySize=auto;html=1;entryX=0.5;entryY=0;entryDx=0;entryDy=0;endArrow=none;endFill=0;" edge="1" parent="1" source="dUOWOXTwYiUu_js7CAqy-1" target="dUOWOXTwYiUu_js7CAqy-19">
          <mxGeometry relative="1" as="geometry" />
        </mxCell>
        <mxCell id="dUOWOXTwYiUu_js7CAqy-32" style="rounded=0;orthogonalLoop=1;jettySize=auto;html=1;entryX=0.5;entryY=0;entryDx=0;entryDy=0;endArrow=none;endFill=0;" edge="1" parent="1" source="dUOWOXTwYiUu_js7CAqy-1" target="dUOWOXTwYiUu_js7CAqy-31">
          <mxGeometry relative="1" as="geometry" />
        </mxCell>
        <mxCell id="dUOWOXTwYiUu_js7CAqy-1" value="Pesan" style="rounded=0;whiteSpace=wrap;html=1;" vertex="1" parent="1">
          <mxGeometry x="440" y="220" width="120" height="60" as="geometry" />
        </mxCell>
        <mxCell id="dUOWOXTwYiUu_js7CAqy-6" style="rounded=0;orthogonalLoop=1;jettySize=auto;html=1;endArrow=none;endFill=0;" edge="1" parent="1" source="dUOWOXTwYiUu_js7CAqy-2" target="dUOWOXTwYiUu_js7CAqy-3">
          <mxGeometry relative="1" as="geometry" />
        </mxCell>
        <mxCell id="dUOWOXTwYiUu_js7CAqy-7" style="rounded=0;orthogonalLoop=1;jettySize=auto;html=1;endArrow=none;endFill=0;" edge="1" parent="1" source="dUOWOXTwYiUu_js7CAqy-2" target="dUOWOXTwYiUu_js7CAqy-4">
          <mxGeometry relative="1" as="geometry" />
        </mxCell>
        <mxCell id="dUOWOXTwYiUu_js7CAqy-10" style="edgeStyle=orthogonalEdgeStyle;rounded=0;orthogonalLoop=1;jettySize=auto;html=1;entryX=0;entryY=0.5;entryDx=0;entryDy=0;endArrow=none;endFill=0;" edge="1" parent="1" source="dUOWOXTwYiUu_js7CAqy-2" target="dUOWOXTwYiUu_js7CAqy-9">
          <mxGeometry relative="1" as="geometry" />
        </mxCell>
        <mxCell id="dUOWOXTwYiUu_js7CAqy-14" style="rounded=0;orthogonalLoop=1;jettySize=auto;html=1;entryX=0.5;entryY=0;entryDx=0;entryDy=0;endArrow=none;endFill=0;" edge="1" parent="1" source="dUOWOXTwYiUu_js7CAqy-2" target="dUOWOXTwYiUu_js7CAqy-5">
          <mxGeometry relative="1" as="geometry" />
        </mxCell>
        <mxCell id="dUOWOXTwYiUu_js7CAqy-30" style="rounded=0;orthogonalLoop=1;jettySize=auto;html=1;endArrow=none;endFill=0;" edge="1" parent="1" source="dUOWOXTwYiUu_js7CAqy-2" target="dUOWOXTwYiUu_js7CAqy-29">
          <mxGeometry relative="1" as="geometry" />
        </mxCell>
        <mxCell id="dUOWOXTwYiUu_js7CAqy-2" value="Pengirim" style="rounded=0;whiteSpace=wrap;html=1;" vertex="1" parent="1">
          <mxGeometry x="140" y="220" width="120" height="60" as="geometry" />
        </mxCell>
        <mxCell id="dUOWOXTwYiUu_js7CAqy-3" value="Poto Profil" style="ellipse;whiteSpace=wrap;html=1;" vertex="1" parent="1">
          <mxGeometry x="70" y="120" width="100" height="70" as="geometry" />
        </mxCell>
        <mxCell id="dUOWOXTwYiUu_js7CAqy-4" value="&amp;nbsp;Nomor Telepon" style="ellipse;whiteSpace=wrap;html=1;" vertex="1" parent="1">
          <mxGeometry x="200" y="120" width="100" height="70" as="geometry" />
        </mxCell>
        <mxCell id="dUOWOXTwYiUu_js7CAqy-5" value="Informasi Profil" style="ellipse;whiteSpace=wrap;html=1;" vertex="1" parent="1">
          <mxGeometry x="210" y="310" width="100" height="70" as="geometry" />
        </mxCell>
        <mxCell id="dUOWOXTwYiUu_js7CAqy-11" style="edgeStyle=orthogonalEdgeStyle;rounded=0;orthogonalLoop=1;jettySize=auto;html=1;entryX=0;entryY=0.5;entryDx=0;entryDy=0;endArrow=none;endFill=0;" edge="1" parent="1" source="dUOWOXTwYiUu_js7CAqy-9" target="dUOWOXTwYiUu_js7CAqy-1">
          <mxGeometry relative="1" as="geometry" />
        </mxCell>
        <mxCell id="dUOWOXTwYiUu_js7CAqy-9" value="Mengirim" style="rhombus;whiteSpace=wrap;html=1;" vertex="1" parent="1">
          <mxGeometry x="290" y="215" width="110" height="70" as="geometry" />
        </mxCell>
        <mxCell id="dUOWOXTwYiUu_js7CAqy-12" value="Penerima" style="rounded=0;whiteSpace=wrap;html=1;" vertex="1" parent="1">
          <mxGeometry x="740" y="220" width="120" height="60" as="geometry" />
        </mxCell>
        <mxCell id="dUOWOXTwYiUu_js7CAqy-16" value="" style="edgeStyle=orthogonalEdgeStyle;rounded=0;orthogonalLoop=1;jettySize=auto;html=1;endArrow=none;endFill=0;" edge="1" parent="1" source="dUOWOXTwYiUu_js7CAqy-13" target="dUOWOXTwYiUu_js7CAqy-12">
          <mxGeometry relative="1" as="geometry" />
        </mxCell>
        <mxCell id="dUOWOXTwYiUu_js7CAqy-13" value="Menerima" style="rhombus;whiteSpace=wrap;html=1;" vertex="1" parent="1">
          <mxGeometry x="590" y="215" width="110" height="70" as="geometry" />
        </mxCell>
        <mxCell id="dUOWOXTwYiUu_js7CAqy-21" style="rounded=0;orthogonalLoop=1;jettySize=auto;html=1;entryX=0.5;entryY=0;entryDx=0;entryDy=0;endArrow=none;endFill=0;" edge="1" parent="1" source="dUOWOXTwYiUu_js7CAqy-17" target="dUOWOXTwYiUu_js7CAqy-1">
          <mxGeometry relative="1" as="geometry" />
        </mxCell>
        <mxCell id="dUOWOXTwYiUu_js7CAqy-17" value="Teks Pesan" style="ellipse;whiteSpace=wrap;html=1;" vertex="1" parent="1">
          <mxGeometry x="520" y="120" width="100" height="70" as="geometry" />
        </mxCell>
        <mxCell id="dUOWOXTwYiUu_js7CAqy-20" style="rounded=0;orthogonalLoop=1;jettySize=auto;html=1;entryX=0.5;entryY=0;entryDx=0;entryDy=0;endArrow=none;endFill=0;" edge="1" parent="1" source="dUOWOXTwYiUu_js7CAqy-18" target="dUOWOXTwYiUu_js7CAqy-1">
          <mxGeometry relative="1" as="geometry" />
        </mxCell>
        <mxCell id="dUOWOXTwYiUu_js7CAqy-18" value="Gambar Pesan" style="ellipse;whiteSpace=wrap;html=1;" vertex="1" parent="1">
          <mxGeometry x="390" y="120" width="100" height="70" as="geometry" />
        </mxCell>
        <mxCell id="dUOWOXTwYiUu_js7CAqy-19" value="*Id Pesan" style="ellipse;whiteSpace=wrap;html=1;" vertex="1" parent="1">
          <mxGeometry x="510" y="310" width="100" height="70" as="geometry" />
        </mxCell>
        <mxCell id="dUOWOXTwYiUu_js7CAqy-24" style="edgeStyle=orthogonalEdgeStyle;rounded=0;orthogonalLoop=1;jettySize=auto;html=1;entryX=0.5;entryY=0;entryDx=0;entryDy=0;endArrow=none;endFill=0;" edge="1" parent="1" source="dUOWOXTwYiUu_js7CAqy-23" target="dUOWOXTwYiUu_js7CAqy-12">
          <mxGeometry relative="1" as="geometry" />
        </mxCell>
        <mxCell id="dUOWOXTwYiUu_js7CAqy-23" value="**Id Pesan" style="ellipse;whiteSpace=wrap;html=1;" vertex="1" parent="1">
          <mxGeometry x="750" y="120" width="100" height="70" as="geometry" />
        </mxCell>
        <mxCell id="dUOWOXTwYiUu_js7CAqy-25" value="1" style="text;html=1;align=center;verticalAlign=middle;resizable=0;points=[];autosize=1;strokeColor=none;fillColor=none;" vertex="1" parent="1">
          <mxGeometry x="255" y="228" width="30" height="30" as="geometry" />
        </mxCell>
        <mxCell id="dUOWOXTwYiUu_js7CAqy-26" value="1" style="text;html=1;align=center;verticalAlign=middle;resizable=0;points=[];autosize=1;strokeColor=none;fillColor=none;" vertex="1" parent="1">
          <mxGeometry x="414" y="228" width="30" height="30" as="geometry" />
        </mxCell>
        <mxCell id="dUOWOXTwYiUu_js7CAqy-27" value="1" style="text;html=1;align=center;verticalAlign=middle;resizable=0;points=[];autosize=1;strokeColor=none;fillColor=none;" vertex="1" parent="1">
          <mxGeometry x="550" y="228" width="30" height="30" as="geometry" />
        </mxCell>
        <mxCell id="dUOWOXTwYiUu_js7CAqy-28" value="M" style="text;html=1;align=center;verticalAlign=middle;resizable=0;points=[];autosize=1;strokeColor=none;fillColor=none;" vertex="1" parent="1">
          <mxGeometry x="710" y="228" width="30" height="30" as="geometry" />
        </mxCell>
        <mxCell id="dUOWOXTwYiUu_js7CAqy-29" value="*Id pengirim" style="ellipse;whiteSpace=wrap;html=1;" vertex="1" parent="1">
          <mxGeometry x="90" y="310" width="100" height="70" as="geometry" />
        </mxCell>
        <mxCell id="dUOWOXTwYiUu_js7CAqy-31" value="**Id Pengirim" style="ellipse;whiteSpace=wrap;html=1;" vertex="1" parent="1">
          <mxGeometry x="400" y="310" width="100" height="70" as="geometry" />
        </mxCell>
      </root>
    </mxGraphModel>
  </diagram>
</mxfile>
